HIERARCHY
ROOT Hips
{
 OFFSET 0.000000 0.000000 0.000000
 CHANNELS 6 Xposition Yposition Zposition Yrotation Xrotation Zrotation
 JOINT Chest
 {
  OFFSET 0.000000 9.585900 0.002600
  CHANNELS 3 Yrotation Xrotation Zrotation
  JOINT Chest2
  {
   OFFSET 0.000000 9.601200 -0.005300
   CHANNELS 3 Yrotation Xrotation Zrotation
   JOINT Chest3
   {
    OFFSET 0.000000 9.561800 0.000000
    CHANNELS 3 Yrotation Xrotation Zrotation
    JOINT Chest4
    {
     OFFSET 0.000000 9.552100 0.000000
     CHANNELS 3 Yrotation Xrotation Zrotation
     JOINT Neck
     {
      OFFSET 0.000000 14.453000 0.000000
      CHANNELS 3 Yrotation Xrotation Zrotation
      JOINT Head
      {
       OFFSET 0.000000 8.936500 -0.011300
       CHANNELS 3 Yrotation Xrotation Zrotation
       End Site
       {
        OFFSET 0.000000 17.073600 -0.006000
       }
      }
     }
     JOINT RightCollar
     {
      OFFSET -2.921100 9.558500 0.000000
      CHANNELS 3 Yrotation Xrotation Zrotation
      JOINT RightShoulder
      {
       OFFSET -13.519700 0.000000 0.000000
       CHANNELS 3 Yrotation Xrotation Zrotation
       JOINT RightElbow
       {
        OFFSET 0.000000 -29.696600 0.000000
        CHANNELS 3 Yrotation Xrotation Zrotation
        JOINT RightWrist
        {
         OFFSET 0.000000 -24.004700 0.000000
         CHANNELS 3 Yrotation Xrotation Zrotation
         End Site
         {
          OFFSET 0.000000 -17.728500 0.000000
         }
        }
       }
      }
     }
     JOINT LeftCollar
     {
      OFFSET 2.921100 9.558500 0.000000
      CHANNELS 3 Yrotation Xrotation Zrotation
      JOINT LeftShoulder
      {
       OFFSET 13.519700 0.000000 0.000000
       CHANNELS 3 Yrotation Xrotation Zrotation
       JOINT LeftElbow
       {
        OFFSET 0.000000 -29.696600 0.000000
        CHANNELS 3 Yrotation Xrotation Zrotation
        JOINT LeftWrist
        {
         OFFSET 0.000000 -24.004700 0.000000
         CHANNELS 3 Yrotation Xrotation Zrotation
         End Site
         {
          OFFSET 0.000000 -17.728500 0.000000
         }
        }
       }
      }
     }
    }
   }
  }
 }
 JOINT RightHip
 {
  OFFSET -7.771700 -0.012900 -0.001300
  CHANNELS 3 Yrotation Xrotation Zrotation
  JOINT RightKnee
  {
   OFFSET 0.000000 -40.869800 0.001200
   CHANNELS 3 Yrotation Xrotation Zrotation
   JOINT RightAnkle
   {
    OFFSET 0.000000 -39.717900 0.002100
    CHANNELS 3 Yrotation Xrotation Zrotation
    JOINT RightToe
    {
     OFFSET 0.000000 -4.965400 11.033500
     CHANNELS 3 Yrotation Xrotation Zrotation
     End Site
     {
      OFFSET 0.000000 -1.423100 5.872300
     }
    }
   }
  }
 }
 JOINT LeftHip
 {
  OFFSET 7.771700 -0.012900 -0.001300
  CHANNELS 3 Yrotation Xrotation Zrotation
  JOINT LeftKnee
  {
   OFFSET 0.000000 -40.869800 0.001200
   CHANNELS 3 Yrotation Xrotation Zrotation
   JOINT LeftAnkle
   {
    OFFSET 0.000000 -39.717900 0.002100
    CHANNELS 3 Yrotation Xrotation Zrotation
    JOINT LeftToe
    {
     OFFSET 0.000000 -4.965400 11.033500
     CHANNELS 3 Yrotation Xrotation Zrotation
     End Site
     {
      OFFSET 0.000000 -1.423100 5.872300
     }
    }
   }
  }
 }
}
MOTION
Frames: 6
Frame Time: 0.008333
-58.550055 46.607800 3.608386 178.411630 -32.309418 -2.684147 1.114777 18.664239 0.935049 0.063598 2.165753 0.109042 0.080908 3.581585 0.183754 0.585088 16.276746 0.902897 -1.401904 18.442316 -2.460476 -1.781122 -1.552700 -4.064940 0.696348 1.191300 -1.018738 5.073509 -7.114413 -14.864798 -45.672474 -58.169502 93.883594 -1.871641 6.212703 -20.492575 0.057030 0.777435 2.360287 -4.397399 -4.626589 13.628122 66.772072 -73.665601 -103.933524 -1.597539 12.759034 9.471369 0.841517 -54.527373 -9.772481 -159.905152 77.440944 -151.466395 -8.566685 -15.847932 -3.738529 -0.172722 -0.857089 -0.339824 1.228492 -56.460060 8.915150 -107.337521 81.787977 -112.563724 4.475133 -6.247283 5.637174 0.539636 0.512892 0.053044
-58.538945 46.603848 3.612018 178.358656 -32.300417 -2.704965 1.056676 18.661747 0.950822 0.057447 2.166812 0.110921 0.097226 3.580380 0.184444 0.548770 16.279399 0.909068 -1.397288 18.448644 -2.411085 -1.788639 -1.541226 -3.975792 0.764688 1.192165 -1.056238 5.036251 -7.150622 -14.864421 -45.713933 -58.196106 93.922179 -1.846279 6.195692 -20.499407 0.122435 0.769597 2.327393 -4.453513 -4.618218 13.642404 66.805565 -73.682901 -103.974412 -1.588315 12.730842 9.506596 0.770761 -54.541460 -9.672102 -160.151419 77.503456 -151.692224 -8.526084 -15.755270 -3.765198 -0.129617 -0.827939 -0.321065 1.237081 -56.474671 8.973503 -107.434862 81.790801 -112.634170 4.507868 -6.292439 5.681176 0.520263 0.523142 0.046681
-58.533388 46.601415 3.613976 178.314330 -32.299990 -2.695450 1.003765 18.665520 0.937709 0.100195 2.164761 0.110304 0.042010 3.582731 0.189943 0.512996 16.280318 0.913526 -1.391216 18.455063 -2.360043 -1.794055 -1.529506 -3.884146 0.685527 1.215810 -1.035961 5.144996 -7.200369 -14.922329 -45.750327 -58.219256 93.965301 -1.838843 6.197936 -20.499222 0.128493 0.764123 2.322743 -4.448867 -4.605650 13.630281 66.849116 -73.702893 -104.025752 -1.575236 12.702493 9.541875 0.769244 -54.543548 -9.679225 -160.283788 77.538568 -151.797720 -8.415722 -15.663432 -3.768599 -0.131535 -0.806706 -0.324640 1.331735 -56.482727 8.931942 -107.559995 81.796961 -112.707769 4.516077 -6.321737 5.723711 0.494782 0.520658 0.040311
-58.524974 46.600139 3.615593 178.266013 -32.300607 -2.705373 0.962127 18.669519 0.948545 0.140254 2.162956 0.108403 -0.010417 3.583580 0.196048 0.477125 16.279707 0.916601 -1.385140 18.461815 -2.307370 -1.800031 -1.517130 -3.789393 0.661205 1.236666 -1.033661 5.189228 -7.240415 -14.953586 -45.781847 -58.236616 94.004318 -1.833820 6.199601 -20.499436 0.029771 0.759149 2.354529 -4.340788 -4.589276 13.581965 66.908664 -73.708895 -104.064353 -1.580891 12.684345 9.546436 0.761440 -54.545836 -9.641253 -160.192969 77.549900 -151.679626 -8.333612 -15.561843 -3.750399 -0.111332 -0.795512 -0.322271 1.349517 -56.485734 8.967481 -107.700393 81.804245 -112.821129 4.521380 -6.364927 5.790171 0.470060 0.527949 0.006151
-58.519088 46.599944 3.616158 178.209936 -32.304264 -2.705389 0.927112 18.677527 0.956230 0.136631 2.160837 0.106899 -0.019366 3.584496 0.200034 0.440978 16.278664 0.919445 -1.380843 18.468253 -2.254768 -1.809108 -1.505388 -3.694110 0.662998 1.254587 -1.042008 5.198051 -7.272429 -14.968370 -45.808589 -58.249081 94.034696 -1.830720 6.204122 -20.495525 -0.006158 0.764366 2.360808 -4.302270 -4.587451 13.560988 66.960236 -73.710687 -104.092560 -1.590885 12.670903 9.545091 0.769519 -54.545224 -9.616799 -160.013657 77.550934 -151.477735 -8.250294 -15.461526 -3.716386 -0.093162 -0.784522 -0.324371 1.369271 -56.485677 9.004467 -107.861304 81.816386 -112.961540 4.527090 -6.392545 5.802235 0.444067 0.500067 0.060221
-58.520004 46.601460 3.613969 178.151000 -32.320731 -2.675561 0.888145 18.700531 0.936904 0.126098 2.157529 0.105437 -0.020992 3.588187 0.204277 0.406133 16.279410 0.923873 -1.378457 18.473657 -2.204452 -1.820944 -1.495622 -3.602469 0.657528 1.275078 -1.053149 5.203526 -7.307832 -14.979264 -45.828197 -58.256196 94.058252 -1.831813 6.209557 -20.491604 0.049998 0.764080 2.326029 -4.361500 -4.591619 13.581419 66.990220 -73.713919 -104.103630 -1.597938 12.660360 9.538800 0.811524 -54.522654 -9.691301 -160.005528 77.565277 -151.439450 -8.086855 -15.388184 -3.719515 -0.156456 -0.755107 -0.319916 1.421851 -56.470302 8.998097 -108.098007 81.833519 -113.170442 4.480710 -6.417112 5.783557 0.460981 0.486109 0.091827
